<svg xmlns="http://www.w3.org/2000/svg" xmlns:xlink="http://www.w3.org/1999/xlink" width="1080" zoomAndPan="magnify" viewBox="0 0 810 809.999993" height="1080" preserveAspectRatio="xMidYMid meet" version="1.0"><defs><filter x="0%" y="0%" width="100%" height="100%" id="77b7a23344"><feColorMatrix values="0 0 0 0 1 0 0 0 0 1 0 0 0 0 1 0 0 0 1 0" color-interpolation-filters="sRGB"/></filter><mask id="e424b3c614"><g filter="url(#77b7a23344)"><rect x="-81" width="972" fill="#000000" y="-80.999999" height="971.999992" fill-opacity="0.2"/></g></mask><clipPath id="a0fc6d100e"><rect x="0" width="481" y="0" height="442"/></clipPath><mask id="b24eb450b8"><g filter="url(#77b7a23344)"><rect x="-81" width="972" fill="#000000" y="-80.999999" height="971.999992" fill-opacity="0.2"/></g></mask><clipPath id="a04d5f8bc4"><path d="M 1 1 L 63.839844 1 L 63.839844 28 L 1 28 Z M 1 1 " clip-rule="nonzero"/></clipPath><clipPath id="8d9d0fcdf1"><rect x="0" width="64" y="0" height="29"/></clipPath></defs><rect x="-81" width="972" fill="#ffffff" y="-80.999999" height="971.999992" fill-opacity="1"/><rect x="-81" width="972" fill="#ffffff" y="-80.999999" height="971.999992" fill-opacity="1"/><path fill="#ffffff" d="M 670.332031 120.445312 L 31.164062 120.445312 C 14.179688 120.445312 0.363281 133.144531 0.363281 148.75 L 0.363281 566.945312 C 0.363281 582.554688 14.179688 595.253906 31.164062 595.253906 L 670.332031 595.253906 C 687.316406 595.253906 701.132812 582.554688 701.132812 566.945312 L 701.132812 148.75 C 701.132812 133.144531 687.316406 120.445312 670.332031 120.445312 Z M 670.332031 120.445312 " fill-opacity="1" fill-rule="nonzero"/><path fill="#ffffff" d="M 416.347656 595.941406 C 413.007812 595.863281 409.691406 595.699219 406.40625 595.398438 C 409.691406 595.699219 413.007812 595.886719 416.347656 595.941406 Z M 416.347656 595.941406 " fill-opacity="1" fill-rule="nonzero"/><path fill="#ffffff" d="M 517.664062 767.847656 L 582.128906 754.488281 C 591.507812 752.542969 601.222656 752.953125 610.40625 755.675781 L 615.070312 757.0625 C 624.125 759.746094 631.421875 766.472656 634.835938 775.273438 C 637.183594 781.320312 635.015625 788.179688 629.625 791.78125 C 613.71875 802.40625 594.800781 807.59375 575.699219 806.5625 L 513.058594 803.1875 Z M 517.664062 767.847656 " fill-opacity="1" fill-rule="nonzero"/><path fill="#1a55b4" d="M 509.324219 769.886719 L 573.785156 757.230469 C 583.167969 755.386719 592.882812 755.773438 602.066406 758.355469 L 606.730469 759.667969 C 615.78125 762.210938 623.082031 768.585938 626.496094 776.925781 C 628.839844 782.652344 626.675781 789.152344 621.28125 792.566406 C 605.378906 802.632812 586.457031 807.546875 567.355469 806.570312 L 504.71875 803.371094 Z M 509.324219 769.886719 " fill-opacity="1" fill-rule="nonzero"/><path fill="#fec857" d="M 583.296875 607.9375 C 574.695312 601.191406 563.992188 597.1875 552.386719 597.1875 C 544.9375 597.1875 537.863281 598.851562 531.476562 601.820312 C 515.382812 606.546875 499.078125 616.363281 484.746094 630.050781 C 461.980469 643.699219 440.753906 656.238281 419.914062 667.472656 L 341.144531 611.34375 L 194.105469 605.355469 C 188.222656 604.476562 182.441406 604.269531 176.882812 604.652344 L 172.070312 604.457031 L 171.839844 605.164062 C 149.640625 608.222656 131.953125 621.074219 127.816406 639.589844 C 124.515625 654.355469 130.550781 669.53125 142.65625 681.269531 L 161.492188 700.445312 C 177.28125 716.519531 197.1875 727.949219 219.03125 733.484375 L 283.777344 749.882812 L 294.921875 785.601562 C 320.1875 781.128906 345.007812 776.46875 369.015625 771.472656 L 521.171875 810.011719 L 535.8125 770.980469 C 556.515625 759.621094 576.054688 740.492188 589.566406 716.226562 C 613.871094 672.574219 610.394531 627.140625 583.296875 607.9375 Z M 583.296875 607.9375 " fill-opacity="1" fill-rule="nonzero"/><path fill="#ffffff" d="M 268.265625 770.140625 L 201.523438 789.390625 C 191.808594 792.191406 181.554688 792.546875 171.675781 790.417969 L 166.65625 789.339844 C 156.917969 787.242188 148.695312 780.753906 144.394531 771.769531 C 141.4375 765.601562 143.164062 758.207031 148.546875 753.980469 C 164.425781 741.523438 183.914062 734.542969 204.089844 734.085938 L 270.261719 732.59375 Z M 268.265625 770.140625 " fill-opacity="1" fill-rule="nonzero"/><path fill="#1a55b4" d="M 290.734375 769.238281 L 210.078125 785.835938 C 200.355469 788.527344 190.105469 788.902344 180.234375 786.925781 L 175.222656 785.925781 C 165.496094 783.976562 157.300781 777.859375 153.035156 769.363281 C 150.109375 763.527344 151.863281 756.511719 157.261719 752.484375 C 173.183594 740.613281 192.691406 733.921875 212.867188 733.40625 L 279.023438 731.726562 Z M 290.734375 769.238281 " fill-opacity="1" fill-rule="nonzero"/><path fill="#fec857" d="M 670.332031 120.117188 L 31.164062 120.117188 C 14.179688 120.117188 0.363281 129.261719 0.363281 140.507812 L 0.363281 160.292969 L 701.132812 160.292969 L 701.132812 140.507812 C 701.132812 129.261719 687.316406 120.117188 670.332031 120.117188 Z M 670.332031 120.117188 " fill-opacity="1" fill-rule="nonzero"/><path fill="#fec857" d="M 64.40625 204.488281 C 51.277344 204.488281 40.597656 215.167969 40.597656 228.296875 C 40.597656 241.421875 51.277344 252.101562 64.40625 252.101562 C 77.535156 252.101562 88.214844 241.421875 88.214844 228.296875 C 88.214844 215.167969 77.535156 204.488281 64.40625 204.488281 Z M 64.40625 204.488281 " fill-opacity="1" fill-rule="nonzero"/><path fill="#fec857" d="M 64.40625 294.28125 C 51.277344 294.28125 40.597656 304.960938 40.597656 318.085938 C 40.597656 331.214844 51.277344 341.894531 64.40625 341.894531 C 77.535156 341.894531 88.214844 331.214844 88.214844 318.085938 C 88.214844 304.960938 77.535156 294.28125 64.40625 294.28125 Z M 64.40625 294.28125 " fill-opacity="1" fill-rule="nonzero"/><path fill="#fec857" d="M 64.40625 384.070312 C 51.277344 384.070312 40.597656 394.75 40.597656 407.878906 C 40.597656 421.007812 51.277344 431.6875 64.40625 431.6875 C 77.535156 431.6875 88.214844 421.007812 88.214844 407.878906 C 88.214844 394.75 77.535156 384.070312 64.40625 384.070312 Z M 64.40625 384.070312 " fill-opacity="1" fill-rule="nonzero"/><path fill="#fec857" d="M 64.40625 473.863281 C 51.277344 473.863281 40.597656 484.542969 40.597656 497.671875 C 40.597656 510.796875 51.277344 521.476562 64.40625 521.476562 C 77.535156 521.476562 88.214844 510.796875 88.214844 497.671875 C 88.214844 484.542969 77.535156 473.863281 64.40625 473.863281 Z M 64.40625 473.863281 " fill-opacity="1" fill-rule="nonzero"/><path fill="#1a55b4" d="M 32.480469 129.816406 C 26.125 129.816406 20.953125 134.609375 20.953125 140.503906 C 20.953125 146.394531 26.125 151.191406 32.480469 151.191406 C 38.835938 151.191406 44.007812 146.394531 44.007812 140.503906 C 44.007812 134.609375 38.835938 129.816406 32.480469 129.816406 Z M 32.480469 129.816406 " fill-opacity="1" fill-rule="nonzero"/><path fill="#1a55b4" d="M 63.914062 151.191406 C 70.269531 151.191406 75.441406 146.394531 75.441406 140.503906 C 75.441406 134.609375 70.269531 129.816406 63.914062 129.816406 C 57.558594 129.816406 52.386719 134.609375 52.386719 140.503906 C 52.386719 146.394531 57.558594 151.191406 63.914062 151.191406 Z M 63.914062 151.191406 " fill-opacity="1" fill-rule="nonzero"/><path fill="#1a55b4" d="M 95.347656 151.191406 C 101.707031 151.191406 106.878906 146.394531 106.878906 140.503906 C 106.878906 134.609375 101.707031 129.816406 95.347656 129.816406 C 88.992188 129.816406 83.820312 134.609375 83.820312 140.503906 C 83.820312 146.394531 88.992188 151.191406 95.347656 151.191406 Z M 95.347656 151.191406 " fill-opacity="1" fill-rule="nonzero"/><path fill="#1a55b4" d="M 111.066406 204.488281 L 640.550781 204.488281 L 640.550781 207.898438 L 111.066406 207.898438 Z M 111.066406 204.488281 " fill-opacity="1" fill-rule="nonzero"/><path fill="#1a55b4" d="M 111.066406 226.589844 L 640.550781 226.589844 L 640.550781 230 L 111.066406 230 Z M 111.066406 226.589844 " fill-opacity="1" fill-rule="nonzero"/><path fill="#1a55b4" d="M 111.066406 248.695312 L 640.550781 248.695312 L 640.550781 252.105469 L 111.066406 252.105469 Z M 111.066406 248.695312 " fill-opacity="1" fill-rule="nonzero"/><path fill="#1a55b4" d="M 111.066406 298.304688 L 640.550781 298.304688 L 640.550781 301.710938 L 111.066406 301.710938 Z M 111.066406 298.304688 " fill-opacity="1" fill-rule="nonzero"/><path fill="#1a55b4" d="M 111.066406 320.40625 L 640.550781 320.40625 L 640.550781 323.8125 L 111.066406 323.8125 Z M 111.066406 320.40625 " fill-opacity="1" fill-rule="nonzero"/><path fill="#1a55b4" d="M 111.066406 342.507812 L 640.550781 342.507812 L 640.550781 345.917969 L 111.066406 345.917969 Z M 111.066406 342.507812 " fill-opacity="1" fill-rule="nonzero"/><path fill="#1a55b4" d="M 111.066406 392.117188 L 640.550781 392.117188 L 640.550781 395.527344 L 111.066406 395.527344 Z M 111.066406 392.117188 " fill-opacity="1" fill-rule="nonzero"/><path fill="#1a55b4" d="M 111.066406 414.21875 L 640.550781 414.21875 L 640.550781 417.628906 L 111.066406 417.628906 Z M 111.066406 414.21875 " fill-opacity="1" fill-rule="nonzero"/><path fill="#1a55b4" d="M 111.066406 436.320312 L 640.550781 436.320312 L 640.550781 439.730469 L 111.066406 439.730469 Z M 111.066406 436.320312 " fill-opacity="1" fill-rule="nonzero"/><path fill="#1a55b4" d="M 111.066406 485.929688 L 640.550781 485.929688 L 640.550781 489.339844 L 111.066406 489.339844 Z M 111.066406 485.929688 " fill-opacity="1" fill-rule="nonzero"/><path fill="#1a55b4" d="M 111.066406 508.03125 L 640.550781 508.03125 L 640.550781 511.441406 L 111.066406 511.441406 Z M 111.066406 508.03125 " fill-opacity="1" fill-rule="nonzero"/><path fill="#1a55b4" d="M 111.066406 530.132812 L 640.550781 530.132812 L 640.550781 533.542969 L 111.066406 533.542969 Z M 111.066406 530.132812 " fill-opacity="1" fill-rule="nonzero"/><path fill="#1a55b4" d="M 121.691406 193.269531 L 119.558594 190.609375 L 64.085938 235.121094 L 53.753906 221.304688 L 51.023438 223.347656 L 63.46875 239.988281 Z M 121.691406 193.269531 " fill-opacity="1" fill-rule="nonzero"/><path fill="#1a55b4" d="M 119.558594 275.871094 L 64.085938 320.382812 L 53.753906 306.566406 L 51.023438 308.609375 L 63.46875 325.246094 L 121.691406 278.527344 Z M 119.558594 275.871094 " fill-opacity="1" fill-rule="nonzero"/><path fill="#1a55b4" d="M 849.914062 205.34375 C 849.914062 208.703125 849.832031 212.0625 849.667969 215.417969 C 849.503906 218.777344 849.257812 222.125 848.925781 225.46875 C 848.597656 228.816406 848.1875 232.148438 847.695312 235.472656 C 847.199219 238.796875 846.625 242.109375 845.96875 245.402344 C 845.316406 248.699219 844.578125 251.976562 843.761719 255.238281 C 842.945312 258.496094 842.050781 261.734375 841.074219 264.953125 C 840.097656 268.167969 839.042969 271.355469 837.914062 274.519531 C 836.78125 277.6875 835.570312 280.820312 834.285156 283.925781 C 833 287.03125 831.636719 290.101562 830.199219 293.140625 C 828.765625 296.175781 827.253906 299.175781 825.667969 302.140625 C 824.085938 305.105469 822.429688 308.027344 820.703125 310.910156 C 818.972656 313.792969 817.175781 316.632812 815.308594 319.425781 C 813.441406 322.21875 811.507812 324.96875 809.507812 327.667969 C 807.503906 330.367188 805.4375 333.015625 803.304688 335.613281 C 801.171875 338.210938 798.980469 340.753906 796.722656 343.242188 C 794.464844 345.734375 792.148438 348.167969 789.773438 350.542969 C 787.394531 352.917969 784.960938 355.234375 782.472656 357.492188 C 779.984375 359.75 777.4375 361.945312 774.839844 364.074219 C 772.242188 366.207031 769.59375 368.273438 766.894531 370.277344 C 764.195312 372.277344 761.449219 374.214844 758.65625 376.082031 C 755.859375 377.945312 753.023438 379.746094 750.140625 381.472656 C 747.257812 383.199219 744.335938 384.855469 741.371094 386.441406 C 738.40625 388.023438 735.40625 389.535156 732.367188 390.972656 C 729.332031 392.410156 726.257812 393.769531 723.152344 395.054688 C 720.050781 396.34375 716.914062 397.550781 713.75 398.683594 C 710.585938 399.816406 707.394531 400.871094 704.179688 401.84375 C 700.964844 402.820312 697.726562 403.714844 694.46875 404.53125 C 691.207031 405.347656 687.929688 406.085938 684.632812 406.742188 C 681.335938 407.398438 678.027344 407.972656 674.703125 408.464844 C 671.378906 408.957031 668.042969 409.367188 664.699219 409.699219 C 661.355469 410.027344 658.003906 410.273438 654.648438 410.4375 C 651.292969 410.605469 647.933594 410.6875 644.574219 410.6875 C 641.210938 410.6875 637.851562 410.605469 634.496094 410.4375 C 631.140625 410.273438 627.789062 410.027344 624.445312 409.699219 C 621.101562 409.367188 617.765625 408.957031 614.441406 408.464844 C 611.117188 407.972656 607.808594 407.398438 604.511719 406.742188 C 601.214844 406.085938 597.9375 405.347656 594.679688 404.53125 C 591.417969 403.714844 588.179688 402.820312 584.964844 401.84375 C 581.75 400.871094 578.558594 399.816406 575.394531 398.683594 C 572.230469 397.550781 569.097656 396.34375 565.992188 395.054688 C 562.886719 393.769531 559.816406 392.410156 556.777344 390.972656 C 553.738281 389.535156 550.738281 388.023438 547.773438 386.441406 C 544.8125 384.855469 541.886719 383.199219 539.003906 381.472656 C 536.121094 379.746094 533.285156 377.945312 530.488281 376.078125 C 527.695312 374.214844 524.949219 372.277344 522.25 370.277344 C 519.550781 368.273438 516.902344 366.207031 514.304688 364.074219 C 511.707031 361.945312 509.164062 359.75 506.671875 357.492188 C 504.183594 355.234375 501.75 352.917969 499.371094 350.542969 C 496.996094 348.167969 494.679688 345.734375 492.421875 343.242188 C 490.167969 340.753906 487.972656 338.210938 485.839844 335.613281 C 483.707031 333.015625 481.640625 330.367188 479.640625 327.667969 C 477.636719 324.96875 475.703125 322.21875 473.835938 319.425781 C 471.96875 316.632812 470.171875 313.792969 468.445312 310.910156 C 466.714844 308.027344 465.058594 305.105469 463.476562 302.140625 C 461.890625 299.175781 460.382812 296.175781 458.945312 293.140625 C 457.507812 290.101562 456.144531 287.03125 454.859375 283.925781 C 453.574219 280.820312 452.363281 277.6875 451.234375 274.519531 C 450.101562 271.355469 449.046875 268.167969 448.070312 264.953125 C 447.09375 261.734375 446.199219 258.496094 445.382812 255.238281 C 444.566406 251.976562 443.832031 248.699219 443.175781 245.402344 C 442.519531 242.109375 441.945312 238.796875 441.453125 235.472656 C 440.957031 232.148438 440.546875 228.816406 440.21875 225.46875 C 439.886719 222.125 439.640625 218.777344 439.476562 215.417969 C 439.3125 212.0625 439.230469 208.703125 439.230469 205.34375 C 439.230469 201.984375 439.3125 198.625 439.476562 195.269531 C 439.640625 191.910156 439.886719 188.5625 440.21875 185.214844 C 440.546875 181.871094 440.957031 178.539062 441.453125 175.214844 C 441.945312 171.890625 442.519531 168.578125 443.175781 165.28125 C 443.832031 161.988281 444.566406 158.707031 445.382812 155.449219 C 446.199219 152.1875 447.09375 148.953125 448.070312 145.734375 C 449.046875 142.519531 450.101562 139.328125 451.234375 136.164062 C 452.363281 133 453.574219 129.867188 454.859375 126.761719 C 456.144531 123.65625 457.507812 120.585938 458.945312 117.546875 C 460.382812 114.511719 461.890625 111.507812 463.476562 108.546875 C 465.058594 105.582031 466.714844 102.660156 468.445312 99.777344 C 470.171875 96.894531 471.96875 94.054688 473.835938 91.261719 C 475.703125 88.464844 477.636719 85.71875 479.640625 83.019531 C 481.640625 80.320312 483.707031 77.671875 485.839844 75.074219 C 487.972656 72.476562 490.167969 69.933594 492.421875 67.441406 C 494.679688 64.953125 496.996094 62.519531 499.371094 60.144531 C 501.75 57.765625 504.183594 55.449219 506.671875 53.195312 C 509.164062 50.9375 511.707031 48.742188 514.304688 46.609375 C 516.902344 44.480469 519.550781 42.410156 522.25 40.410156 C 524.949219 38.40625 527.695312 36.472656 530.488281 34.605469 C 533.285156 32.738281 536.121094 30.941406 539.003906 29.214844 C 541.886719 27.488281 544.808594 25.832031 547.773438 24.246094 C 550.738281 22.664062 553.738281 21.152344 556.777344 19.714844 C 559.816406 18.277344 562.886719 16.917969 565.992188 15.628906 C 569.097656 14.34375 572.230469 13.136719 575.394531 12.003906 C 578.558594 10.871094 581.75 9.816406 584.964844 8.84375 C 588.179688 7.867188 591.417969 6.96875 594.679688 6.152344 C 597.9375 5.335938 601.214844 4.601562 604.511719 3.945312 C 607.808594 3.289062 611.117188 2.714844 614.441406 2.222656 C 617.765625 1.730469 621.101562 1.316406 624.445312 0.988281 C 627.789062 0.660156 631.140625 0.414062 634.496094 0.246094 C 637.851562 0.0820312 641.210938 0 644.574219 0 C 647.933594 0 651.292969 0.0820312 654.648438 0.246094 C 658.003906 0.414062 661.355469 0.660156 664.699219 0.988281 C 668.042969 1.316406 671.378906 1.730469 674.703125 2.222656 C 678.027344 2.714844 681.335938 3.289062 684.632812 3.945312 C 687.929688 4.601562 691.207031 5.335938 694.46875 6.152344 C 697.726562 6.96875 700.964844 7.867188 704.179688 8.84375 C 707.394531 9.816406 710.585938 10.871094 713.75 12.003906 C 716.914062 13.136719 720.050781 14.34375 723.152344 15.628906 C 726.257812 16.917969 729.332031 18.277344 732.367188 19.714844 C 735.40625 21.152344 738.40625 22.664062 741.371094 24.246094 C 744.335938 25.832031 747.257812 27.488281 750.140625 29.214844 C 753.023438 30.941406 755.859375 32.738281 758.65625 34.605469 C 761.449219 36.472656 764.195312 38.40625 766.894531 40.410156 C 769.59375 42.410156 772.242188 44.480469 774.839844 46.609375 C 777.4375 48.742188 779.984375 50.9375 782.472656 53.195312 C 784.960938 55.449219 787.394531 57.765625 789.773438 60.144531 C 792.148438 62.519531 794.464844 64.953125 796.722656 67.441406 C 798.980469 69.933594 801.171875 72.476562 803.304688 75.074219 C 805.4375 77.671875 807.503906 80.320312 809.503906 83.019531 C 811.507812 85.71875 813.441406 88.464844 815.308594 91.261719 C 817.175781 94.054688 818.972656 96.894531 820.703125 99.777344 C 822.429688 102.660156 824.085938 105.582031 825.667969 108.546875 C 827.253906 111.507812 828.765625 114.511719 830.199219 117.546875 C 831.636719 120.585938 833 123.65625 834.285156 126.761719 C 835.570312 129.867188 836.78125 133 837.914062 136.164062 C 839.042969 139.328125 840.097656 142.519531 841.074219 145.734375 C 842.050781 148.953125 842.945312 152.1875 843.761719 155.449219 C 844.578125 158.707031 845.316406 161.988281 845.96875 165.28125 C 846.625 168.578125 847.199219 171.890625 847.695312 175.214844 C 848.1875 178.539062 848.597656 181.871094 848.925781 185.214844 C 849.257812 188.5625 849.503906 191.910156 849.667969 195.269531 C 849.832031 198.625 849.914062 201.984375 849.914062 205.34375 Z M 849.914062 205.34375 " fill-opacity="1" fill-rule="nonzero"/><path fill="#ffffff" d="M 819.195312 177.007812 C 819.660156 179.863281 820.054688 182.734375 820.375 185.609375 C 820.699219 188.488281 820.953125 191.371094 821.132812 194.261719 C 821.3125 197.148438 821.425781 200.042969 821.464844 202.9375 C 821.503906 205.832031 821.472656 208.726562 821.367188 211.621094 C 821.265625 214.511719 821.09375 217.402344 820.847656 220.285156 C 820.601562 223.171875 820.289062 226.046875 819.902344 228.917969 C 819.515625 231.789062 819.0625 234.644531 818.535156 237.492188 C 818.007812 240.339844 817.414062 243.171875 816.746094 245.988281 C 816.082031 248.808594 815.347656 251.605469 814.546875 254.390625 C 813.742188 257.171875 812.871094 259.929688 811.933594 262.671875 C 810.996094 265.410156 809.992188 268.125 808.917969 270.8125 C 807.847656 273.503906 806.710938 276.164062 805.507812 278.796875 C 804.308594 281.433594 803.042969 284.035156 801.710938 286.605469 C 800.382812 289.179688 798.988281 291.714844 797.535156 294.21875 C 796.082031 296.722656 794.566406 299.1875 792.988281 301.617188 C 791.414062 304.046875 789.78125 306.4375 788.085938 308.785156 C 786.394531 311.132812 784.644531 313.4375 782.839844 315.703125 C 781.03125 317.964844 779.171875 320.179688 777.257812 322.351562 C 775.339844 324.523438 773.375 326.648438 771.355469 328.722656 C 769.335938 330.796875 767.265625 332.820312 765.148438 334.796875 C 763.03125 336.769531 760.863281 338.6875 758.652344 340.554688 C 756.4375 342.421875 754.179688 344.234375 751.878906 345.988281 C 749.578125 347.746094 747.234375 349.445312 744.847656 351.085938 C 742.464844 352.726562 740.039062 354.308594 737.578125 355.832031 C 735.113281 357.351562 732.617188 358.8125 730.082031 360.214844 C 727.546875 361.613281 724.980469 362.949219 722.378906 364.222656 C 719.777344 365.496094 717.148438 366.703125 714.488281 367.847656 C 711.828125 368.992188 709.144531 370.070312 706.429688 371.082031 C 703.71875 372.097656 700.984375 373.042969 698.222656 373.917969 C 695.464844 374.796875 692.6875 375.605469 689.886719 376.347656 C 687.089844 377.089844 684.273438 377.761719 681.441406 378.367188 C 678.609375 378.96875 675.765625 379.503906 672.910156 379.96875 C 670.050781 380.429688 667.183594 380.824219 664.304688 381.148438 C 661.429688 381.46875 658.546875 381.722656 655.65625 381.902344 C 652.765625 382.085938 649.875 382.195312 646.980469 382.234375 C 644.085938 382.273438 641.191406 382.242188 638.296875 382.140625 C 635.402344 382.035156 632.515625 381.863281 629.628906 381.617188 C 626.746094 381.375 623.867188 381.058594 620.996094 380.671875 C 618.128906 380.289062 615.269531 379.832031 612.421875 379.304688 C 609.578125 378.777344 606.742188 378.183594 603.925781 377.519531 C 601.109375 376.851562 598.308594 376.121094 595.527344 375.316406 C 592.746094 374.515625 589.984375 373.644531 587.246094 372.707031 C 584.507812 371.765625 581.792969 370.761719 579.101562 369.691406 C 576.414062 368.621094 573.75 367.480469 571.117188 366.28125 C 568.484375 365.078125 565.878906 363.8125 563.308594 362.480469 C 560.738281 361.152344 558.199219 359.761719 555.695312 358.304688 C 553.191406 356.851562 550.726562 355.335938 548.296875 353.761719 C 545.867188 352.183594 543.480469 350.550781 541.132812 348.859375 C 538.78125 347.164062 536.476562 345.414062 534.214844 343.609375 C 531.953125 341.804688 529.734375 339.941406 527.5625 338.027344 C 525.390625 336.113281 523.269531 334.144531 521.191406 332.125 C 519.117188 330.105469 517.09375 328.039062 515.121094 325.917969 C 513.148438 323.800781 511.226562 321.636719 509.359375 319.421875 C 507.492188 317.210938 505.683594 314.953125 503.925781 312.652344 C 502.167969 310.347656 500.472656 308.003906 498.828125 305.621094 C 497.1875 303.234375 495.605469 300.8125 494.085938 298.347656 C 492.5625 295.886719 491.101562 293.386719 489.703125 290.851562 C 488.304688 288.316406 486.96875 285.75 485.695312 283.148438 C 484.421875 280.550781 483.210938 277.917969 482.066406 275.261719 C 480.921875 272.601562 479.84375 269.914062 478.832031 267.203125 C 477.820312 264.488281 476.875 261.753906 475.996094 258.996094 C 475.117188 256.238281 474.308594 253.457031 473.566406 250.660156 C 472.824219 247.859375 472.152344 245.046875 471.550781 242.214844 C 470.945312 239.382812 470.414062 236.539062 469.949219 233.679688 C 469.484375 230.820312 469.09375 227.953125 468.769531 225.078125 C 468.445312 222.199219 468.195312 219.316406 468.011719 216.425781 C 467.832031 213.539062 467.71875 210.644531 467.679688 207.75 C 467.640625 204.855469 467.671875 201.960938 467.777344 199.066406 C 467.878906 196.175781 468.050781 193.285156 468.296875 190.398438 C 468.542969 187.515625 468.855469 184.636719 469.242188 181.769531 C 469.628906 178.898438 470.085938 176.042969 470.609375 173.195312 C 471.136719 170.347656 471.730469 167.515625 472.398438 164.695312 C 473.0625 161.878906 473.796875 159.078125 474.597656 156.296875 C 475.402344 153.515625 476.273438 150.753906 477.210938 148.015625 C 478.148438 145.277344 479.152344 142.5625 480.226562 139.875 C 481.296875 137.183594 482.433594 134.523438 483.636719 131.886719 C 484.835938 129.253906 486.105469 126.652344 487.433594 124.078125 C 488.765625 121.507812 490.15625 118.96875 491.609375 116.46875 C 493.066406 113.964844 494.578125 111.496094 496.15625 109.070312 C 497.730469 106.640625 499.367188 104.25 501.058594 101.902344 C 502.75 99.554688 504.5 97.246094 506.308594 94.984375 C 508.113281 92.722656 509.972656 90.503906 511.886719 88.332031 C 513.804688 86.164062 515.769531 84.039062 517.789062 81.964844 C 519.808594 79.890625 521.878906 77.863281 523.996094 75.890625 C 526.113281 73.917969 528.28125 72 530.492188 70.132812 C 532.707031 68.265625 534.964844 66.453125 537.265625 64.695312 C 539.566406 62.941406 541.910156 61.242188 544.296875 59.601562 C 546.679688 57.960938 549.105469 56.378906 551.566406 54.855469 C 554.03125 53.332031 556.53125 51.871094 559.0625 50.472656 C 561.597656 49.074219 564.164062 47.738281 566.765625 46.464844 C 569.367188 45.191406 571.996094 43.980469 574.65625 42.839844 C 577.316406 41.695312 580 40.617188 582.714844 39.601562 C 585.425781 38.589844 588.160156 37.644531 590.921875 36.765625 C 593.679688 35.890625 596.457031 35.078125 599.257812 34.339844 C 602.054688 33.597656 604.871094 32.925781 607.703125 32.320312 C 610.535156 31.71875 613.378906 31.183594 616.238281 30.71875 C 619.09375 30.257812 621.960938 29.863281 624.839844 29.539062 C 627.714844 29.214844 630.597656 28.964844 633.488281 28.78125 C 636.378906 28.601562 639.269531 28.492188 642.164062 28.453125 C 645.0625 28.414062 647.953125 28.445312 650.847656 28.546875 C 653.742188 28.648438 656.628906 28.824219 659.515625 29.066406 C 662.402344 29.3125 665.277344 29.628906 668.148438 30.011719 C 671.015625 30.398438 673.875 30.855469 676.722656 31.382812 C 679.570312 31.90625 682.402344 32.503906 685.21875 33.167969 C 688.035156 33.832031 690.835938 34.566406 693.617188 35.371094 C 696.398438 36.171875 699.160156 37.042969 701.898438 37.980469 C 704.636719 38.917969 707.351562 39.925781 710.042969 40.996094 C 712.730469 42.066406 715.394531 43.203125 718.027344 44.40625 C 720.660156 45.609375 723.265625 46.875 725.835938 48.203125 C 728.40625 49.535156 730.945312 50.925781 733.449219 52.382812 C 735.953125 53.835938 738.417969 55.351562 740.847656 56.925781 C 743.277344 58.503906 745.664062 60.136719 748.011719 61.828125 C 750.363281 63.523438 752.667969 65.273438 754.929688 67.078125 C 757.195312 68.882812 759.410156 70.746094 761.582031 72.660156 C 763.753906 74.574219 765.875 76.542969 767.953125 78.558594 C 770.027344 80.578125 772.050781 82.648438 774.023438 84.765625 C 775.996094 86.886719 777.917969 89.050781 779.785156 91.265625 C 781.652344 93.476562 783.464844 95.734375 785.21875 98.035156 C 786.976562 100.339844 788.675781 102.679688 790.316406 105.066406 C 791.957031 107.453125 793.539062 109.875 795.058594 112.339844 C 796.582031 114.800781 798.042969 117.300781 799.441406 119.835938 C 800.839844 122.371094 802.179688 124.9375 803.453125 127.535156 C 804.726562 130.136719 805.933594 132.765625 807.078125 135.425781 C 808.222656 138.085938 809.300781 140.773438 810.3125 143.484375 C 811.324219 146.195312 812.269531 148.933594 813.148438 151.691406 C 814.027344 154.449219 814.835938 157.230469 815.578125 160.027344 C 816.320312 162.828125 816.992188 165.640625 817.59375 168.472656 C 818.199219 171.304688 818.734375 174.148438 819.195312 177.007812 Z M 819.195312 177.007812 " fill-opacity="1" fill-rule="nonzero"/><path fill="#fec857" d="M 649.535156 65.5 C 649.535156 65.992188 649.488281 66.476562 649.394531 66.953125 C 649.296875 67.433594 649.15625 67.898438 648.96875 68.351562 C 648.78125 68.804688 648.554688 69.230469 648.28125 69.636719 C 648.011719 70.046875 647.703125 70.421875 647.355469 70.765625 C 647.011719 71.113281 646.632812 71.421875 646.226562 71.691406 C 645.820312 71.964844 645.390625 72.195312 644.941406 72.382812 C 644.488281 72.566406 644.023438 72.710938 643.542969 72.804688 C 643.0625 72.898438 642.578125 72.949219 642.089844 72.949219 C 641.601562 72.949219 641.117188 72.898438 640.636719 72.804688 C 640.15625 72.710938 639.691406 72.566406 639.242188 72.382812 C 638.789062 72.195312 638.359375 71.964844 637.953125 71.691406 C 637.546875 71.421875 637.171875 71.113281 636.824219 70.765625 C 636.480469 70.421875 636.171875 70.046875 635.898438 69.636719 C 635.628906 69.230469 635.398438 68.804688 635.210938 68.351562 C 635.023438 67.898438 634.882812 67.433594 634.785156 66.953125 C 634.691406 66.476562 634.644531 65.992188 634.644531 65.5 C 634.644531 65.011719 634.691406 64.527344 634.785156 64.046875 C 634.882812 63.570312 635.023438 63.101562 635.210938 62.652344 C 635.398438 62.199219 635.628906 61.769531 635.898438 61.363281 C 636.171875 60.957031 636.480469 60.582031 636.824219 60.234375 C 637.171875 59.890625 637.546875 59.582031 637.953125 59.308594 C 638.359375 59.039062 638.789062 58.808594 639.242188 58.621094 C 639.691406 58.433594 640.15625 58.292969 640.636719 58.199219 C 641.117188 58.101562 641.601562 58.054688 642.089844 58.054688 C 642.578125 58.054688 643.0625 58.101562 643.542969 58.199219 C 644.023438 58.292969 644.488281 58.433594 644.941406 58.621094 C 645.390625 58.808594 645.820312 59.039062 646.226562 59.308594 C 646.632812 59.582031 647.011719 59.890625 647.355469 60.234375 C 647.703125 60.582031 648.011719 60.957031 648.28125 61.363281 C 648.554688 61.769531 648.78125 62.199219 648.96875 62.652344 C 649.15625 63.101562 649.296875 63.570312 649.394531 64.046875 C 649.488281 64.527344 649.535156 65.011719 649.535156 65.5 Z M 649.535156 65.5 " fill-opacity="1" fill-rule="nonzero"/><path fill="#fec857" d="M 649.535156 65.5 C 649.535156 65.992188 649.488281 66.476562 649.394531 66.953125 C 649.296875 67.433594 649.15625 67.898438 648.96875 68.351562 C 648.78125 68.804688 648.554688 69.230469 648.28125 69.636719 C 648.011719 70.046875 647.703125 70.421875 647.355469 70.765625 C 647.011719 71.113281 646.632812 71.421875 646.226562 71.691406 C 645.820312 71.964844 645.390625 72.195312 644.941406 72.382812 C 644.488281 72.566406 644.023438 72.710938 643.542969 72.804688 C 643.0625 72.898438 642.578125 72.949219 642.089844 72.949219 C 641.601562 72.949219 641.117188 72.898438 640.636719 72.804688 C 640.15625 72.710938 639.691406 72.566406 639.242188 72.382812 C 638.789062 72.195312 638.359375 71.964844 637.953125 71.691406 C 637.546875 71.421875 637.171875 71.113281 636.824219 70.765625 C 636.480469 70.421875 636.171875 70.046875 635.898438 69.636719 C 635.628906 69.230469 635.398438 68.804688 635.210938 68.351562 C 635.023438 67.898438 634.882812 67.433594 634.785156 66.953125 C 634.691406 66.476562 634.644531 65.992188 634.644531 65.5 C 634.644531 65.011719 634.691406 64.527344 634.785156 64.046875 C 634.882812 63.570312 635.023438 63.101562 635.210938 62.652344 C 635.398438 62.199219 635.628906 61.769531 635.898438 61.363281 C 636.171875 60.957031 636.480469 60.582031 636.824219 60.234375 C 637.171875 59.890625 637.546875 59.582031 637.953125 59.308594 C 638.359375 59.039062 638.789062 58.808594 639.242188 58.621094 C 639.691406 58.433594 640.15625 58.292969 640.636719 58.199219 C 641.117188 58.101562 641.601562 58.054688 642.089844 58.054688 C 642.578125 58.054688 643.0625 58.101562 643.542969 58.199219 C 644.023438 58.292969 644.488281 58.433594 644.941406 58.621094 C 645.390625 58.808594 645.820312 59.039062 646.226562 59.308594 C 646.632812 59.582031 647.011719 59.890625 647.355469 60.234375 C 647.703125 60.582031 648.011719 60.957031 648.28125 61.363281 C 648.554688 61.769531 648.78125 62.199219 648.96875 62.652344 C 649.15625 63.101562 649.296875 63.570312 649.394531 64.046875 C 649.488281 64.527344 649.535156 65.011719 649.535156 65.5 Z M 649.535156 65.5 " fill-opacity="1" fill-rule="nonzero"/><path fill="#fec857" d="M 579.949219 85.476562 C 579.949219 85.96875 579.902344 86.453125 579.808594 86.929688 C 579.710938 87.410156 579.570312 87.875 579.382812 88.328125 C 579.195312 88.78125 578.964844 89.207031 578.695312 89.613281 C 578.421875 90.023438 578.113281 90.398438 577.769531 90.742188 C 577.421875 91.089844 577.046875 91.398438 576.640625 91.667969 C 576.234375 91.941406 575.804688 92.171875 575.351562 92.359375 C 574.902344 92.542969 574.4375 92.6875 573.957031 92.78125 C 573.476562 92.875 572.992188 92.925781 572.503906 92.925781 C 572.015625 92.925781 571.53125 92.875 571.050781 92.78125 C 570.570312 92.6875 570.105469 92.542969 569.652344 92.359375 C 569.203125 92.171875 568.773438 91.941406 568.367188 91.667969 C 567.960938 91.398438 567.582031 91.089844 567.238281 90.742188 C 566.890625 90.398438 566.582031 90.023438 566.3125 89.613281 C 566.039062 89.207031 565.8125 88.78125 565.625 88.328125 C 565.4375 87.875 565.296875 87.410156 565.199219 86.929688 C 565.105469 86.453125 565.058594 85.96875 565.058594 85.476562 C 565.058594 84.988281 565.105469 84.503906 565.199219 84.023438 C 565.296875 83.546875 565.4375 83.078125 565.625 82.628906 C 565.8125 82.175781 566.039062 81.746094 566.3125 81.339844 C 566.582031 80.933594 566.890625 80.558594 567.238281 80.210938 C 567.582031 79.867188 567.960938 79.558594 568.367188 79.285156 C 568.773438 79.015625 569.203125 78.785156 569.652344 78.597656 C 570.105469 78.410156 570.570312 78.269531 571.050781 78.175781 C 571.53125 78.078125 572.015625 78.03125 572.503906 78.03125 C 572.992188 78.03125 573.476562 78.078125 573.957031 78.175781 C 574.4375 78.269531 574.902344 78.410156 575.351562 78.597656 C 575.804688 78.785156 576.234375 79.015625 576.640625 79.285156 C 577.046875 79.558594 577.421875 79.867188 577.769531 80.210938 C 578.113281 80.558594 578.421875 80.933594 578.695312 81.339844 C 578.964844 81.746094 579.195312 82.175781 579.382812 82.628906 C 579.570312 83.078125 579.710938 83.546875 579.808594 84.023438 C 579.902344 84.503906 579.949219 84.988281 579.949219 85.476562 Z M 579.949219 85.476562 " fill-opacity="1" fill-rule="nonzero"/><path fill="#fec857" d="M 529.671875 137.574219 C 529.671875 138.0625 529.625 138.546875 529.527344 139.027344 C 529.433594 139.503906 529.292969 139.96875 529.105469 140.421875 C 528.917969 140.875 528.6875 141.304688 528.417969 141.710938 C 528.144531 142.117188 527.835938 142.492188 527.492188 142.839844 C 527.144531 143.183594 526.769531 143.492188 526.363281 143.765625 C 525.957031 144.035156 525.527344 144.265625 525.074219 144.453125 C 524.621094 144.640625 524.15625 144.78125 523.675781 144.875 C 523.199219 144.972656 522.714844 145.019531 522.226562 145.019531 C 521.734375 145.019531 521.25 144.972656 520.773438 144.875 C 520.292969 144.78125 519.828125 144.640625 519.375 144.453125 C 518.921875 144.265625 518.496094 144.035156 518.085938 143.765625 C 517.679688 143.492188 517.304688 143.183594 516.960938 142.839844 C 516.613281 142.492188 516.304688 142.117188 516.035156 141.710938 C 515.761719 141.304688 515.53125 140.875 515.34375 140.421875 C 515.15625 139.96875 515.015625 139.503906 514.921875 139.027344 C 514.824219 138.546875 514.777344 138.0625 514.777344 137.574219 C 514.777344 137.082031 514.824219 136.597656 514.921875 136.121094 C 515.015625 135.640625 515.15625 135.175781 515.34375 134.722656 C 515.53125 134.269531 515.761719 133.84375 516.035156 133.4375 C 516.304688 133.027344 516.613281 132.652344 516.960938 132.308594 C 517.304688 131.960938 517.679688 131.652344 518.085938 131.382812 C 518.496094 131.109375 518.921875 130.878906 519.375 130.691406 C 519.828125 130.503906 520.292969 130.363281 520.773438 130.269531 C 521.25 130.171875 521.734375 130.125 522.226562 130.125 C 522.714844 130.125 523.199219 130.171875 523.675781 130.269531 C 524.15625 130.363281 524.621094 130.503906 525.074219 130.691406 C 525.527344 130.878906 525.957031 131.109375 526.363281 131.382812 C 526.769531 131.652344 527.144531 131.960938 527.492188 132.308594 C 527.835938 132.652344 528.144531 133.027344 528.417969 133.4375 C 528.6875 133.84375 528.917969 134.269531 529.105469 134.722656 C 529.292969 135.175781 529.433594 135.640625 529.527344 136.121094 C 529.625 136.597656 529.671875 137.082031 529.671875 137.574219 Z M 529.671875 137.574219 " fill-opacity="1" fill-rule="nonzero"/><path fill="#fec857" d="M 512.175781 207.824219 C 512.175781 208.316406 512.128906 208.796875 512.035156 209.277344 C 511.9375 209.757812 511.796875 210.222656 511.609375 210.675781 C 511.421875 211.125 511.195312 211.554688 510.921875 211.960938 C 510.652344 212.371094 510.34375 212.746094 509.996094 213.089844 C 509.652344 213.4375 509.273438 213.746094 508.867188 214.015625 C 508.460938 214.289062 508.03125 214.519531 507.582031 214.707031 C 507.128906 214.890625 506.664062 215.035156 506.183594 215.128906 C 505.703125 215.222656 505.21875 215.273438 504.730469 215.273438 C 504.242188 215.273438 503.757812 215.222656 503.277344 215.128906 C 502.796875 215.035156 502.332031 214.890625 501.882812 214.707031 C 501.429688 214.519531 501 214.289062 500.59375 214.015625 C 500.1875 213.746094 499.8125 213.4375 499.464844 213.089844 C 499.121094 212.746094 498.8125 212.371094 498.539062 211.960938 C 498.265625 211.554688 498.039062 211.125 497.851562 210.675781 C 497.664062 210.222656 497.523438 209.757812 497.425781 209.277344 C 497.332031 208.796875 497.285156 208.316406 497.285156 207.824219 C 497.285156 207.335938 497.332031 206.851562 497.425781 206.371094 C 497.523438 205.894531 497.664062 205.425781 497.851562 204.976562 C 498.039062 204.523438 498.265625 204.09375 498.539062 203.6875 C 498.8125 203.28125 499.121094 202.90625 499.464844 202.558594 C 499.8125 202.214844 500.1875 201.90625 500.59375 201.632812 C 501 201.363281 501.429688 201.132812 501.882812 200.945312 C 502.332031 200.757812 502.796875 200.617188 503.277344 200.523438 C 503.757812 200.425781 504.242188 200.378906 504.730469 200.378906 C 505.21875 200.378906 505.703125 200.425781 506.183594 200.523438 C 506.664062 200.617188 507.128906 200.757812 507.582031 200.945312 C 508.03125 201.132812 508.460938 201.363281 508.867188 201.632812 C 509.273438 201.90625 509.652344 202.214844 509.996094 202.558594 C 510.34375 202.90625 510.652344 203.28125 510.921875 203.6875 C 511.195312 204.09375 511.421875 204.523438 511.609375 204.976562 C 511.796875 205.425781 511.9375 205.894531 512.035156 206.371094 C 512.128906 206.851562 512.175781 207.335938 512.175781 207.824219 Z M 512.175781 207.824219 " fill-opacity="1" fill-rule="nonzero"/><path fill="#fec857" d="M 532.152344 277.414062 C 532.152344 277.902344 532.105469 278.386719 532.011719 278.867188 C 531.914062 279.347656 531.773438 279.8125 531.585938 280.265625 C 531.398438 280.714844 531.171875 281.144531 530.898438 281.550781 C 530.628906 281.957031 530.320312 282.335938 529.972656 282.679688 C 529.625 283.027344 529.25 283.335938 528.84375 283.605469 C 528.4375 283.878906 528.007812 284.105469 527.558594 284.292969 C 527.105469 284.480469 526.640625 284.621094 526.160156 284.71875 C 525.679688 284.8125 525.195312 284.859375 524.707031 284.859375 C 524.21875 284.859375 523.734375 284.8125 523.253906 284.71875 C 522.773438 284.621094 522.308594 284.480469 521.859375 284.292969 C 521.40625 284.105469 520.976562 283.878906 520.570312 283.605469 C 520.164062 283.335938 519.789062 283.027344 519.441406 282.679688 C 519.097656 282.335938 518.789062 281.957031 518.515625 281.550781 C 518.242188 281.144531 518.015625 280.714844 517.828125 280.265625 C 517.640625 279.8125 517.5 279.347656 517.402344 278.867188 C 517.308594 278.386719 517.261719 277.902344 517.261719 277.414062 C 517.261719 276.925781 517.308594 276.441406 517.402344 275.960938 C 517.5 275.480469 517.640625 275.015625 517.828125 274.566406 C 518.015625 274.113281 518.242188 273.683594 518.515625 273.277344 C 518.789062 272.871094 519.097656 272.496094 519.441406 272.148438 C 519.789062 271.804688 520.164062 271.496094 520.570312 271.222656 C 520.976562 270.953125 521.40625 270.722656 521.859375 270.535156 C 522.308594 270.347656 522.773438 270.207031 523.253906 270.109375 C 523.734375 270.015625 524.21875 269.96875 524.707031 269.96875 C 525.195312 269.96875 525.679688 270.015625 526.160156 270.109375 C 526.640625 270.207031 527.105469 270.347656 527.558594 270.535156 C 528.007812 270.722656 528.4375 270.953125 528.84375 271.222656 C 529.25 271.496094 529.625 271.804688 529.972656 272.148438 C 530.320312 272.496094 530.628906 272.871094 530.898438 273.277344 C 531.171875 273.683594 531.398438 274.113281 531.585938 274.566406 C 531.773438 275.015625 531.914062 275.480469 532.011719 275.960938 C 532.105469 276.441406 532.152344 276.925781 532.152344 277.414062 Z M 532.152344 277.414062 " fill-opacity="1" fill-rule="nonzero"/><path fill="#fec857" d="M 584.25 327.691406 C 584.25 328.179688 584.199219 328.664062 584.105469 329.144531 C 584.011719 329.625 583.867188 330.089844 583.679688 330.539062 C 583.496094 330.992188 583.265625 331.421875 582.992188 331.828125 C 582.722656 332.234375 582.414062 332.609375 582.066406 332.957031 C 581.722656 333.300781 581.34375 333.609375 580.9375 333.882812 C 580.53125 334.152344 580.101562 334.382812 579.652344 334.570312 C 579.199219 334.757812 578.734375 334.898438 578.253906 334.996094 C 577.773438 335.089844 577.289062 335.136719 576.800781 335.136719 C 576.3125 335.136719 575.828125 335.089844 575.347656 334.996094 C 574.871094 334.898438 574.402344 334.757812 573.953125 334.570312 C 573.5 334.382812 573.070312 334.152344 572.664062 333.882812 C 572.257812 333.609375 571.882812 333.300781 571.535156 332.957031 C 571.191406 332.609375 570.882812 332.234375 570.609375 331.828125 C 570.339844 331.421875 570.109375 330.992188 569.921875 330.539062 C 569.734375 330.089844 569.59375 329.625 569.5 329.144531 C 569.402344 328.664062 569.355469 328.179688 569.355469 327.691406 C 569.355469 327.203125 569.402344 326.71875 569.5 326.238281 C 569.59375 325.757812 569.734375 325.292969 569.921875 324.839844 C 570.109375 324.390625 570.339844 323.960938 570.609375 323.554688 C 570.882812 323.148438 571.191406 322.769531 571.535156 322.425781 C 571.882812 322.078125 572.257812 321.769531 572.664062 321.5 C 573.070312 321.226562 573.5 321 573.953125 320.8125 C 574.402344 320.625 574.871094 320.484375 575.347656 320.386719 C 575.828125 320.292969 576.3125 320.246094 576.800781 320.246094 C 577.289062 320.246094 577.773438 320.292969 578.253906 320.386719 C 578.734375 320.484375 579.199219 320.625 579.652344 320.8125 C 580.101562 321 580.53125 321.226562 580.9375 321.5 C 581.34375 321.769531 581.722656 322.078125 582.066406 322.425781 C 582.414062 322.769531 582.722656 323.148438 582.992188 323.554688 C 583.265625 323.960938 583.496094 324.390625 583.679688 324.839844 C 583.867188 325.292969 584.011719 325.757812 584.105469 326.238281 C 584.199219 326.71875 584.25 327.203125 584.25 327.691406 Z M 584.25 327.691406 " fill-opacity="1" fill-rule="nonzero"/><path fill="#fec857" d="M 654.503906 345.183594 C 654.503906 345.675781 654.457031 346.160156 654.359375 346.636719 C 654.265625 347.117188 654.125 347.582031 653.9375 348.035156 C 653.75 348.488281 653.519531 348.914062 653.25 349.324219 C 652.976562 349.730469 652.667969 350.105469 652.324219 350.449219 C 651.976562 350.796875 651.601562 351.105469 651.195312 351.375 C 650.789062 351.648438 650.359375 351.878906 649.90625 352.066406 C 649.453125 352.253906 648.988281 352.394531 648.507812 352.488281 C 648.03125 352.585938 647.546875 352.632812 647.058594 352.632812 C 646.566406 352.632812 646.082031 352.585938 645.605469 352.488281 C 645.125 352.394531 644.660156 352.253906 644.207031 352.066406 C 643.753906 351.878906 643.328125 351.648438 642.917969 351.375 C 642.511719 351.105469 642.136719 350.796875 641.792969 350.449219 C 641.445312 350.105469 641.136719 349.730469 640.863281 349.324219 C 640.59375 348.914062 640.363281 348.488281 640.175781 348.035156 C 639.988281 347.582031 639.847656 347.117188 639.753906 346.636719 C 639.65625 346.160156 639.609375 345.675781 639.609375 345.183594 C 639.609375 344.695312 639.65625 344.210938 639.753906 343.734375 C 639.847656 343.253906 639.988281 342.789062 640.175781 342.335938 C 640.363281 341.882812 640.59375 341.453125 640.863281 341.046875 C 641.136719 340.640625 641.445312 340.265625 641.792969 339.917969 C 642.136719 339.574219 642.511719 339.265625 642.917969 338.992188 C 643.328125 338.722656 643.753906 338.492188 644.207031 338.304688 C 644.660156 338.117188 645.125 337.976562 645.605469 337.882812 C 646.082031 337.785156 646.566406 337.738281 647.058594 337.738281 C 647.546875 337.738281 648.03125 337.785156 648.507812 337.882812 C 648.988281 337.976562 649.453125 338.117188 649.90625 338.304688 C 650.359375 338.492188 650.789062 338.722656 651.195312 338.992188 C 651.601562 339.265625 651.976562 339.574219 652.324219 339.917969 C 652.667969 340.265625 652.976562 340.640625 653.25 341.046875 C 653.519531 341.453125 653.75 341.882812 653.9375 342.335938 C 654.125 342.789062 654.265625 343.253906 654.359375 343.734375 C 654.457031 344.210938 654.503906 344.695312 654.503906 345.183594 Z M 654.503906 345.183594 " fill-opacity="1" fill-rule="nonzero"/><path fill="#fec857" d="M 724.089844 325.207031 C 724.089844 325.699219 724.042969 326.183594 723.945312 326.660156 C 723.851562 327.140625 723.710938 327.605469 723.523438 328.058594 C 723.335938 328.511719 723.105469 328.9375 722.835938 329.347656 C 722.5625 329.753906 722.253906 330.128906 721.910156 330.472656 C 721.5625 330.820312 721.1875 331.128906 720.78125 331.398438 C 720.375 331.671875 719.945312 331.902344 719.492188 332.089844 C 719.042969 332.277344 718.574219 332.417969 718.097656 332.511719 C 717.617188 332.609375 717.132812 332.65625 716.644531 332.65625 C 716.15625 332.65625 715.671875 332.609375 715.191406 332.511719 C 714.710938 332.417969 714.246094 332.277344 713.792969 332.089844 C 713.34375 331.902344 712.914062 331.671875 712.507812 331.398438 C 712.101562 331.128906 711.722656 330.820312 711.378906 330.472656 C 711.03125 330.128906 710.722656 329.753906 710.453125 329.347656 C 710.179688 328.9375 709.949219 328.511719 709.765625 328.058594 C 709.578125 327.605469 709.4375 327.140625 709.339844 326.660156 C 709.246094 326.183594 709.195312 325.699219 709.195312 325.207031 C 709.195312 324.71875 709.246094 324.234375 709.339844 323.757812 C 709.4375 323.277344 709.578125 322.8125 709.765625 322.359375 C 709.949219 321.90625 710.179688 321.476562 710.453125 321.070312 C 710.722656 320.664062 711.03125 320.289062 711.378906 319.941406 C 711.722656 319.597656 712.101562 319.289062 712.507812 319.015625 C 712.914062 318.746094 713.34375 318.515625 713.792969 318.328125 C 714.246094 318.140625 714.710938 318 715.191406 317.90625 C 715.671875 317.808594 716.15625 317.761719 716.644531 317.761719 C 717.132812 317.761719 717.617188 317.808594 718.097656 317.90625 C 718.574219 318 719.042969 318.140625 719.492188 318.328125 C 719.945312 318.515625 720.375 318.746094 720.78125 319.015625 C 721.1875 319.289062 721.5625 319.597656 721.910156 319.941406 C 722.253906 320.289062 722.5625 320.664062 722.835938 321.070312 C 723.105469 321.476562 723.335938 321.90625 723.523438 322.359375 C 723.710938 322.8125 723.851562 323.277344 723.949219 323.757812 C 724.042969 324.234375 724.089844 324.71875 724.089844 325.207031 Z M 724.089844 325.207031 " fill-opacity="1" fill-rule="nonzero"/><path fill="#fec857" d="M 774.367188 273.113281 C 774.367188 273.601562 774.320312 274.085938 774.222656 274.566406 C 774.128906 275.046875 773.988281 275.511719 773.800781 275.964844 C 773.613281 276.414062 773.382812 276.84375 773.113281 277.25 C 772.839844 277.65625 772.53125 278.035156 772.1875 278.378906 C 771.839844 278.726562 771.464844 279.035156 771.058594 279.304688 C 770.652344 279.578125 770.222656 279.804688 769.769531 279.992188 C 769.316406 280.179688 768.851562 280.320312 768.371094 280.417969 C 767.894531 280.511719 767.410156 280.5625 766.921875 280.5625 C 766.429688 280.5625 765.945312 280.511719 765.46875 280.417969 C 764.988281 280.320312 764.523438 280.179688 764.070312 279.992188 C 763.617188 279.808594 763.1875 279.578125 762.78125 279.304688 C 762.375 279.035156 762 278.726562 761.65625 278.378906 C 761.308594 278.035156 761 277.65625 760.726562 277.25 C 760.457031 276.84375 760.226562 276.414062 760.039062 275.964844 C 759.851562 275.511719 759.710938 275.046875 759.617188 274.566406 C 759.519531 274.085938 759.472656 273.601562 759.472656 273.113281 C 759.472656 272.625 759.519531 272.140625 759.617188 271.660156 C 759.710938 271.183594 759.851562 270.714844 760.039062 270.265625 C 760.226562 269.8125 760.457031 269.382812 760.726562 268.976562 C 761 268.570312 761.308594 268.195312 761.65625 267.847656 C 762 267.503906 762.375 267.195312 762.78125 266.921875 C 763.191406 266.652344 763.617188 266.421875 764.070312 266.234375 C 764.523438 266.046875 764.988281 265.90625 765.46875 265.8125 C 765.945312 265.714844 766.429688 265.667969 766.921875 265.667969 C 767.410156 265.667969 767.894531 265.714844 768.371094 265.8125 C 768.851562 265.90625 769.316406 266.046875 769.769531 266.234375 C 770.222656 266.421875 770.652344 266.652344 771.058594 266.921875 C 771.464844 267.195312 771.839844 267.503906 772.1875 267.847656 C 772.53125 268.195312 772.839844 268.570312 773.113281 268.976562 C 773.382812 269.382812 773.613281 269.8125 773.800781 270.265625 C 773.988281 270.714844 774.128906 271.183594 774.222656 271.660156 C 774.320312 272.140625 774.367188 272.625 774.367188 273.113281 Z M 774.367188 273.113281 " fill-opacity="1" fill-rule="nonzero"/><path fill="#fec857" d="M 791.859375 202.859375 C 791.859375 203.351562 791.8125 203.835938 791.71875 204.3125 C 791.621094 204.792969 791.480469 205.257812 791.292969 205.710938 C 791.105469 206.164062 790.878906 206.589844 790.605469 207 C 790.335938 207.40625 790.027344 207.78125 789.679688 208.125 C 789.335938 208.472656 788.957031 208.78125 788.550781 209.050781 C 788.144531 209.324219 787.714844 209.554688 787.265625 209.742188 C 786.8125 209.929688 786.347656 210.070312 785.867188 210.164062 C 785.386719 210.261719 784.902344 210.308594 784.414062 210.308594 C 783.925781 210.308594 783.441406 210.261719 782.960938 210.164062 C 782.480469 210.070312 782.015625 209.929688 781.566406 209.742188 C 781.113281 209.554688 780.683594 209.324219 780.277344 209.054688 C 779.871094 208.78125 779.496094 208.472656 779.148438 208.125 C 778.804688 207.78125 778.496094 207.40625 778.222656 207 C 777.953125 206.589844 777.722656 206.164062 777.535156 205.710938 C 777.347656 205.257812 777.207031 204.792969 777.109375 204.3125 C 777.015625 203.835938 776.96875 203.351562 776.96875 202.859375 C 776.96875 202.371094 777.015625 201.886719 777.109375 201.410156 C 777.207031 200.929688 777.347656 200.464844 777.535156 200.011719 C 777.722656 199.558594 777.953125 199.128906 778.222656 198.722656 C 778.496094 198.316406 778.804688 197.941406 779.148438 197.59375 C 779.496094 197.25 779.871094 196.941406 780.277344 196.667969 C 780.683594 196.398438 781.113281 196.167969 781.566406 195.980469 C 782.015625 195.792969 782.480469 195.652344 782.960938 195.558594 C 783.441406 195.460938 783.925781 195.414062 784.414062 195.414062 C 784.902344 195.414062 785.386719 195.460938 785.867188 195.558594 C 786.347656 195.652344 786.8125 195.792969 787.265625 195.980469 C 787.714844 196.167969 788.144531 196.398438 788.550781 196.667969 C 788.957031 196.941406 789.335938 197.25 789.679688 197.59375 C 790.027344 197.941406 790.335938 198.316406 790.605469 198.722656 C 790.878906 199.128906 791.105469 199.558594 791.292969 200.011719 C 791.480469 200.464844 791.621094 200.929688 791.71875 201.410156 C 791.8125 201.886719 791.859375 202.371094 791.859375 202.859375 Z M 791.859375 202.859375 " fill-opacity="1" fill-rule="nonzero"/><path fill="#fec857" d="M 771.882812 133.273438 C 771.882812 133.761719 771.835938 134.246094 771.742188 134.726562 C 771.644531 135.203125 771.503906 135.671875 771.316406 136.121094 C 771.128906 136.574219 770.902344 137.003906 770.628906 137.410156 C 770.359375 137.816406 770.050781 138.191406 769.703125 138.539062 C 769.359375 138.882812 768.980469 139.191406 768.574219 139.464844 C 768.167969 139.734375 767.738281 139.964844 767.289062 140.152344 C 766.835938 140.339844 766.371094 140.480469 765.890625 140.574219 C 765.410156 140.671875 764.925781 140.71875 764.4375 140.71875 C 763.949219 140.71875 763.464844 140.671875 762.984375 140.574219 C 762.503906 140.480469 762.039062 140.339844 761.589844 140.152344 C 761.136719 139.964844 760.707031 139.734375 760.300781 139.464844 C 759.894531 139.191406 759.519531 138.882812 759.171875 138.539062 C 758.828125 138.191406 758.519531 137.816406 758.246094 137.410156 C 757.976562 137.003906 757.746094 136.574219 757.558594 136.121094 C 757.371094 135.671875 757.230469 135.203125 757.132812 134.726562 C 757.039062 134.246094 756.992188 133.761719 756.992188 133.273438 C 756.992188 132.78125 757.039062 132.300781 757.132812 131.820312 C 757.230469 131.339844 757.371094 130.875 757.558594 130.421875 C 757.746094 129.972656 757.976562 129.542969 758.246094 129.136719 C 758.519531 128.726562 758.828125 128.351562 759.171875 128.007812 C 759.519531 127.660156 759.894531 127.351562 760.300781 127.082031 C 760.707031 126.808594 761.136719 126.578125 761.589844 126.390625 C 762.039062 126.207031 762.503906 126.0625 762.984375 125.96875 C 763.464844 125.875 763.949219 125.824219 764.4375 125.824219 C 764.925781 125.824219 765.410156 125.875 765.890625 125.96875 C 766.371094 126.0625 766.835938 126.207031 767.289062 126.390625 C 767.738281 126.578125 768.167969 126.808594 768.574219 127.082031 C 768.980469 127.351562 769.359375 127.660156 769.703125 128.007812 C 770.050781 128.351562 770.359375 128.726562 770.628906 129.136719 C 770.902344 129.542969 771.128906 129.972656 771.316406 130.421875 C 771.503906 130.875 771.644531 131.339844 771.742188 131.820312 C 771.835938 132.300781 771.882812 132.78125 771.882812 133.273438 Z M 771.882812 133.273438 " fill-opacity="1" fill-rule="nonzero"/><path fill="#fec857" d="M 719.792969 82.996094 C 719.792969 83.484375 719.746094 83.96875 719.648438 84.449219 C 719.554688 84.929688 719.414062 85.394531 719.226562 85.84375 C 719.039062 86.296875 718.808594 86.726562 718.535156 87.132812 C 718.265625 87.539062 717.957031 87.914062 717.609375 88.261719 C 717.265625 88.605469 716.890625 88.914062 716.484375 89.1875 C 716.074219 89.460938 715.648438 89.6875 715.195312 89.875 C 714.742188 90.0625 714.277344 90.203125 713.796875 90.300781 C 713.320312 90.394531 712.835938 90.441406 712.34375 90.441406 C 711.855469 90.441406 711.371094 90.394531 710.894531 90.300781 C 710.414062 90.203125 709.949219 90.0625 709.496094 89.875 C 709.042969 89.6875 708.613281 89.460938 708.207031 89.1875 C 707.800781 88.914062 707.425781 88.605469 707.078125 88.261719 C 706.734375 87.914062 706.425781 87.539062 706.152344 87.132812 C 705.882812 86.726562 705.652344 86.296875 705.464844 85.84375 C 705.277344 85.394531 705.136719 84.929688 705.042969 84.449219 C 704.945312 83.96875 704.898438 83.484375 704.898438 82.996094 C 704.898438 82.507812 704.945312 82.023438 705.042969 81.542969 C 705.136719 81.0625 705.277344 80.597656 705.464844 80.144531 C 705.652344 79.695312 705.882812 79.265625 706.152344 78.859375 C 706.425781 78.453125 706.734375 78.074219 707.078125 77.730469 C 707.425781 77.382812 707.800781 77.074219 708.207031 76.804688 C 708.613281 76.53125 709.042969 76.304688 709.496094 76.117188 C 709.949219 75.929688 710.414062 75.789062 710.890625 75.691406 C 711.371094 75.597656 711.855469 75.550781 712.34375 75.550781 C 712.835938 75.550781 713.320312 75.597656 713.796875 75.691406 C 714.277344 75.789062 714.742188 75.929688 715.195312 76.117188 C 715.648438 76.304688 716.074219 76.53125 716.480469 76.804688 C 716.890625 77.074219 717.265625 77.382812 717.609375 77.730469 C 717.957031 78.074219 718.265625 78.453125 718.535156 78.859375 C 718.808594 79.265625 719.039062 79.695312 719.226562 80.144531 C 719.414062 80.597656 719.554688 81.0625 719.648438 81.542969 C 719.746094 82.023438 719.792969 82.507812 719.792969 82.996094 Z M 719.792969 82.996094 " fill-opacity="1" fill-rule="nonzero"/><path fill="#1a55b4" d="M 682.039062 204.402344 C 682.039062 205.507812 681.984375 206.613281 681.875 207.714844 C 681.769531 208.816406 681.605469 209.910156 681.390625 211 C 681.171875 212.085938 680.90625 213.15625 680.582031 214.214844 C 680.261719 215.277344 679.890625 216.316406 679.464844 217.339844 C 679.042969 218.363281 678.570312 219.363281 678.046875 220.339844 C 677.523438 221.316406 676.957031 222.265625 676.339844 223.1875 C 675.726562 224.105469 675.066406 224.996094 674.363281 225.851562 C 673.660156 226.707031 672.917969 227.527344 672.136719 228.308594 C 671.351562 229.09375 670.535156 229.835938 669.675781 230.539062 C 668.820312 231.242188 667.933594 231.898438 667.011719 232.515625 C 666.089844 233.128906 665.144531 233.699219 664.167969 234.222656 C 663.191406 234.742188 662.191406 235.214844 661.167969 235.640625 C 660.144531 236.0625 659.101562 236.4375 658.042969 236.757812 C 656.984375 237.078125 655.910156 237.347656 654.824219 237.5625 C 653.738281 237.78125 652.644531 237.941406 651.542969 238.050781 C 650.441406 238.160156 649.335938 238.214844 648.226562 238.214844 C 647.121094 238.214844 646.015625 238.160156 644.914062 238.050781 C 643.8125 237.941406 642.71875 237.78125 641.632812 237.5625 C 640.546875 237.347656 639.472656 237.078125 638.414062 236.757812 C 637.351562 236.4375 636.3125 236.0625 635.289062 235.640625 C 634.265625 235.214844 633.265625 234.742188 632.289062 234.21875 C 631.3125 233.699219 630.363281 233.128906 629.445312 232.515625 C 628.523438 231.898438 627.632812 231.242188 626.777344 230.539062 C 625.921875 229.835938 625.101562 229.09375 624.320312 228.308594 C 623.535156 227.527344 622.792969 226.707031 622.089844 225.851562 C 621.390625 224.996094 620.730469 224.105469 620.113281 223.1875 C 619.5 222.265625 618.929688 221.316406 618.410156 220.339844 C 617.886719 219.363281 617.414062 218.363281 616.992188 217.339844 C 616.566406 216.316406 616.195312 215.277344 615.871094 214.214844 C 615.550781 213.15625 615.28125 212.085938 615.066406 211 C 614.851562 209.910156 614.6875 208.816406 614.578125 207.714844 C 614.472656 206.613281 614.417969 205.507812 614.417969 204.402344 C 614.417969 203.292969 614.472656 202.191406 614.578125 201.085938 C 614.6875 199.984375 614.851562 198.890625 615.066406 197.804688 C 615.28125 196.71875 615.550781 195.648438 615.871094 194.585938 C 616.195312 193.527344 616.566406 192.484375 616.992188 191.460938 C 617.414062 190.441406 617.886719 189.441406 618.410156 188.464844 C 618.929688 187.488281 619.5 186.539062 620.113281 185.617188 C 620.730469 184.695312 621.390625 183.808594 622.089844 182.953125 C 622.792969 182.097656 623.535156 181.277344 624.320312 180.492188 C 625.101562 179.710938 625.921875 178.96875 626.777344 178.265625 C 627.632812 177.5625 628.523438 176.902344 629.441406 176.289062 C 630.363281 175.671875 631.3125 175.105469 632.289062 174.582031 C 633.265625 174.0625 634.265625 173.589844 635.289062 173.164062 C 636.3125 172.742188 637.351562 172.367188 638.414062 172.046875 C 639.472656 171.726562 640.546875 171.457031 641.632812 171.242188 C 642.71875 171.023438 643.8125 170.863281 644.914062 170.753906 C 646.015625 170.644531 647.121094 170.589844 648.226562 170.589844 C 649.335938 170.589844 650.441406 170.644531 651.542969 170.753906 C 652.644531 170.863281 653.738281 171.023438 654.824219 171.242188 C 655.910156 171.457031 656.984375 171.726562 658.042969 172.046875 C 659.101562 172.367188 660.144531 172.742188 661.167969 173.164062 C 662.191406 173.589844 663.191406 174.0625 664.167969 174.582031 C 665.144531 175.105469 666.089844 175.671875 667.011719 176.289062 C 667.933594 176.902344 668.820312 177.5625 669.675781 178.265625 C 670.535156 178.96875 671.351562 179.710938 672.136719 180.492188 C 672.917969 181.277344 673.660156 182.097656 674.363281 182.953125 C 675.066406 183.808594 675.726562 184.695312 676.339844 185.617188 C 676.957031 186.539062 677.523438 187.488281 678.046875 188.464844 C 678.570312 189.441406 679.042969 190.441406 679.464844 191.460938 C 679.890625 192.484375 680.261719 193.527344 680.582031 194.585938 C 680.90625 195.648438 681.171875 196.71875 681.390625 197.804688 C 681.605469 198.890625 681.769531 199.984375 681.875 201.085938 C 681.984375 202.191406 682.039062 203.292969 682.039062 204.402344 Z M 682.039062 204.402344 " fill-opacity="1" fill-rule="nonzero"/><path fill="#fec857" d="M 647.5625 219.390625 L 624.277344 196.105469 C 622.613281 194.4375 622.613281 191.738281 624.277344 190.074219 C 625.945312 188.40625 628.644531 188.40625 630.308594 190.074219 L 647.5625 207.324219 L 717.183594 137.703125 C 718.851562 136.039062 721.550781 136.039062 723.214844 137.703125 C 724.882812 139.371094 724.882812 142.070312 723.214844 143.734375 Z M 647.5625 219.390625 " fill-opacity="1" fill-rule="nonzero"/><path fill="#e29c6e" d="M 459.109375 334.800781 L 459.109375 342.835938 C 458.253906 343.742188 457.367188 344.628906 456.445312 345.484375 C 452.453125 349.210938 447.921875 352.429688 442.957031 355.03125 L 441.296875 355.902344 C 430.984375 361.285156 418.875 361.421875 408.59375 356.554688 C 406.527344 355.582031 404.550781 354.425781 402.671875 353.050781 C 400.976562 351.824219 399.367188 350.519531 397.824219 349.125 C 399.5 345.988281 401.449219 343.105469 403.59375 340.523438 C 404.265625 341.058594 404.953125 341.59375 405.65625 342.097656 C 406.613281 342.785156 407.585938 343.421875 408.59375 344.027344 C 419.445312 350.433594 432.945312 350.851562 444.285156 344.933594 L 445.945312 344.0625 C 448.410156 342.769531 450.757812 341.328125 452.988281 339.75 C 455.152344 338.242188 457.183594 336.578125 459.109375 334.800781 Z M 459.109375 334.800781 " fill-opacity="1" fill-rule="nonzero"/><path fill="#1a55b4" d="M 561.613281 587.359375 L 550.320312 407.488281 C 550.320312 390.308594 537.898438 376.03125 521.550781 373.128906 L 465.375 355.300781 C 439.570312 347.117188 412.179688 345.195312 385.480469 349.703125 L 337.171875 357.886719 L 337.117188 358.585938 C 336.589844 358.558594 336.070312 358.503906 335.535156 358.503906 C 317.90625 358.503906 303.617188 372.792969 303.617188 390.417969 L 266.730469 504.019531 L 235.625 508.203125 L 239 586.019531 L 239.265625 586.003906 C 241.203125 601.785156 254.632812 614.015625 270.9375 614.015625 C 279.433594 614.015625 287.136719 610.675781 292.855469 605.261719 C 297.445312 601.929688 301.125 597.421875 303.417969 592.160156 L 303.425781 592.164062 L 303.445312 592.101562 C 304.167969 590.4375 304.730469 588.691406 305.160156 586.894531 L 328.980469 514.523438 C 333.125 525.535156 333.386719 537.742188 329.511719 549.050781 L 306.066406 617.503906 L 334.8125 649.132812 C 350.886719 666.835938 372.285156 677.523438 394.789062 680.449219 C 424.914062 665.667969 454.894531 647.984375 488.253906 627.945312 L 522.34375 624.058594 L 532.929688 622.851562 C 533.179688 622.808594 533.410156 622.785156 533.660156 622.765625 L 535.101562 622.597656 C 535.476562 622.558594 535.808594 622.453125 536.164062 622.371094 C 536.3125 622.347656 536.4375 622.328125 536.5625 622.285156 C 536.707031 622.246094 536.855469 622.222656 537 622.179688 C 549.023438 619.46875 558.460938 609.988281 561.089844 597.964844 C 561.59375 595.753906 561.84375 593.433594 561.84375 591.074219 C 561.84375 589.824219 561.757812 588.589844 561.613281 587.359375 Z M 561.613281 587.359375 " fill-opacity="1" fill-rule="nonzero"/><path fill="#e29c6e" d="M 283.410156 459.796875 C 283.605469 459.3125 283.761719 458.8125 283.894531 458.296875 C 284.335938 456.371094 284.261719 454.351562 283.660156 452.4375 L 267.957031 403.484375 L 266.167969 397.875 C 266.167969 397.875 266.167969 397.875 266.164062 397.855469 L 265.832031 397.105469 L 264.152344 393.367188 C 263.960938 392.9375 263.753906 392.546875 263.511719 392.164062 C 260.679688 387.515625 254.707031 385.671875 249.664062 388.113281 L 245.335938 390.242188 C 244.324219 390.734375 243.234375 391.03125 242.109375 391.144531 C 241.558594 391.199219 240.984375 391.21875 240.417969 391.164062 C 237.417969 390.941406 234.601562 392.546875 233.265625 395.210938 L 229.238281 403.304688 C 229.21875 403.308594 229.21875 403.324219 229.21875 403.324219 L 223.34375 411.9375 C 220.925781 415.492188 219.851562 419.808594 220.296875 424.082031 L 220.316406 424.285156 L 221.09375 431.46875 L 222.46875 444.269531 C 223.085938 449.886719 225.511719 455.152344 229.390625 459.269531 L 237.03125 467.367188 C 237.59375 467.941406 237.980469 468.648438 238.183594 469.390625 L 238.351562 471.070312 L 240.324219 490.734375 L 243.359375 521.054688 L 283.835938 517 L 279.179688 470.515625 Z M 283.410156 459.796875 " fill-opacity="1" fill-rule="nonzero"/><path fill="#000000" d="M 420.152344 653.394531 L 307.183594 653.394531 L 251.976562 505.710938 L 364.945312 505.710938 Z M 420.152344 653.394531 " fill-opacity="1" fill-rule="nonzero"/><path fill="#000000" d="M 427.980469 653.394531 L 338.4375 653.394531 L 283.050781 505.21875 L 372.589844 505.21875 Z M 427.980469 653.394531 " fill-opacity="1" fill-rule="nonzero"/><path fill="#1a55b4" d="M 536.890625 622.230469 C 536.320312 622.394531 535.722656 622.5 535.097656 622.582031 L 534.800781 622.609375 C 535.503906 622.5 536.210938 622.394531 536.890625 622.230469 Z M 536.890625 622.230469 " fill-opacity="1" fill-rule="nonzero"/><path fill="#000000" d="M 283.226562 505.703125 L 283.039062 505.214844 L 371.023438 505.214844 C 369.121094 505.921875 367.304688 506.628906 365.566406 507.386719 L 364.941406 505.703125 Z M 283.226562 505.703125 " fill-opacity="1" fill-rule="nonzero"/><path fill="#000000" d="M 338.164062 652.644531 C 338.410156 652.886719 338.652344 653.160156 338.925781 653.40625 L 338.4375 653.40625 Z M 338.164062 652.644531 " fill-opacity="1" fill-rule="nonzero"/><path fill="#ffffff" d="M 372.246094 504.78125 C 371.839844 504.917969 371.429688 505.078125 371.023438 505.214844 C 369.121094 505.921875 367.304688 506.628906 365.566406 507.386719 L 364.941406 505.703125 L 283.226562 505.703125 L 283.039062 505.214844 L 324.371094 505.214844 L 323.988281 504.589844 Z M 372.246094 504.78125 " fill-opacity="1" fill-rule="nonzero"/><path fill="#e29c6e" d="M 459.605469 353.605469 L 449.449219 351.078125 C 452.871094 351.839844 456.238281 352.65625 459.605469 353.605469 Z M 459.605469 353.605469 " fill-opacity="1" fill-rule="nonzero"/><path fill="#e29c6e" d="M 425.277344 595.886719 C 414.320312 596.253906 403.691406 595.558594 393.453125 593.613281 L 388.988281 587.125 C 388.105469 585.835938 387.050781 584.714844 385.894531 583.730469 L 382.644531 579.554688 C 380.578125 576.90625 377.789062 574.914062 374.613281 573.824219 L 331.554688 559.015625 C 329.765625 558.402344 328.082031 560.179688 328.796875 561.929688 L 328.953125 562.316406 C 331.542969 568.660156 336.242188 573.914062 342.261719 577.191406 L 352.441406 582.730469 C 352.625 582.828125 352.789062 582.945312 352.964844 583.050781 L 342.210938 584.992188 C 337.527344 585.839844 332.726562 585.785156 328.0625 584.835938 L 307.597656 580.675781 C 302.425781 579.625 297.511719 583.359375 297.140625 588.625 L 296.359375 599.796875 C 296.050781 604.207031 297.710938 608.527344 300.890625 611.59375 L 321.242188 631.234375 C 328.050781 637.804688 337.792969 640.351562 346.945312 637.957031 L 380.875 629.078125 C 384.988281 628 389.265625 627.679688 393.492188 628.132812 L 429.382812 626.761719 Z M 425.277344 595.886719 " fill-opacity="1" fill-rule="nonzero"/><path fill="#000000" d="M 554.9375 250.398438 C 554.9375 235.742188 545.511719 223.3125 532.40625 218.757812 C 534.386719 212.992188 535.476562 206.8125 535.476562 200.378906 C 535.476562 169.132812 510.148438 143.804688 478.902344 143.804688 C 473.691406 143.804688 468.648438 144.523438 463.855469 145.84375 C 453.605469 135.515625 439.402344 129.117188 423.703125 129.117188 C 400.476562 129.117188 380.527344 143.125 371.8125 163.148438 C 344.097656 166.800781 322.699219 190.5 322.699219 219.214844 C 322.699219 240.078125 334 258.289062 350.804688 268.097656 C 345.523438 274.023438 342.285156 281.8125 342.285156 290.375 C 342.285156 308.433594 356.570312 323.117188 374.453125 323.832031 C 377.3125 339.445312 390.960938 351.285156 407.398438 351.285156 C 425.914062 351.285156 440.921875 336.273438 440.921875 317.757812 C 440.921875 299.703125 426.636719 285.019531 408.753906 284.304688 C 407.832031 279.257812 405.773438 274.621094 402.859375 270.636719 C 415.488281 264.832031 425.613281 254.523438 431.164062 241.761719 C 432.90625 241.53125 434.625 241.222656 436.3125 240.839844 C 441.304688 246.738281 448.300781 250.867188 456.246094 252.21875 C 457.335938 252.695312 458.441406 253.148438 459.5625 253.558594 C 460.800781 266.757812 469.691406 277.703125 481.753906 281.972656 C 481.277344 283 480.855469 284.054688 480.484375 285.132812 C 478.523438 284.777344 476.511719 284.5625 474.449219 284.5625 C 455.933594 284.5625 440.921875 299.574219 440.921875 318.085938 C 440.921875 336.601562 455.933594 351.609375 474.449219 351.609375 C 489.160156 351.609375 501.628906 342.121094 506.140625 328.9375 C 508.101562 329.292969 510.113281 329.507812 512.179688 329.507812 C 530.695312 329.507812 545.703125 314.5 545.703125 295.984375 C 545.703125 289.355469 543.753906 283.191406 540.433594 277.988281 C 549.1875 271.941406 554.9375 261.84375 554.9375 250.398438 Z M 554.9375 250.398438 " fill-opacity="1" fill-rule="nonzero"/><path fill="#000000" d="M 207.382812 439.65625 L 304.957031 381.410156 C 306.808594 380.304688 307.574219 378.125 306.652344 376.582031 C 305.722656 375.015625 303.441406 374.660156 301.585938 375.765625 L 204.011719 434.011719 L 202.363281 435.71875 L 196.726562 441.578125 C 196.285156 442.042969 196.648438 442.648438 197.265625 442.480469 L 205.097656 440.296875 Z M 207.382812 439.65625 " fill-opacity="1" fill-rule="nonzero"/><path fill="#e29c6e" d="M 260.316406 394.273438 C 259.304688 404.859375 261.414062 415.507812 266.375 424.914062 L 267.527344 427.09375 C 269.5625 430.949219 268.296875 435.722656 264.621094 438.066406 L 260.289062 440.832031 C 252.359375 445.886719 249.878906 456.332031 254.6875 464.414062 L 254.699219 464.433594 C 257.59375 469.300781 263.820312 471.003906 268.792969 468.292969 L 277.34375 463.625 C 282.9375 460.574219 287.011719 455.332031 288.585938 449.160156 C 290.363281 442.195312 289.523438 434.820312 286.21875 428.4375 L 269.621094 396.347656 C 268.285156 393.769531 265.632812 392.136719 262.726562 392.105469 C 261.484375 392.089844 260.433594 393.03125 260.316406 394.273438 Z M 260.316406 394.273438 " fill-opacity="1" fill-rule="nonzero"/><g mask="url(#e424b3c614)"><g transform="matrix(1, 0, 0, 1, 125, 346)"><g clip-path="url(#a0fc6d100e)"><path fill="#ffffff" d="M 129.699219 118.433594 C 132.59375 123.300781 138.820312 125.003906 143.792969 122.292969 L 152.34375 117.625 C 157.9375 114.574219 162.011719 109.332031 163.585938 103.160156 C 165.363281 96.195312 164.523438 88.820312 161.21875 82.4375 L 144.621094 50.347656 C 143.285156 47.769531 140.632812 46.136719 137.726562 46.105469 C 136.484375 46.089844 135.433594 47.03125 135.316406 48.273438 C 134.304688 58.859375 136.414062 69.507812 141.375 78.914062 L 142.527344 81.09375 C 144.5625 84.949219 143.296875 89.722656 139.621094 92.066406 L 135.289062 94.828125 C 127.359375 99.886719 124.878906 110.332031 129.6875 118.414062 Z M 129.699219 118.433594 " fill-opacity="1" fill-rule="nonzero"/><path fill="#ffffff" d="M 355.488281 61.480469 C 355.488281 63.546875 355.707031 65.582031 356.058594 67.539062 L 370.207031 220.53125 L 298.707031 249.835938 L 298.707031 249.886719 C 296.234375 249.996094 293.789062 249.996094 291.347656 249.941406 C 288.007812 249.886719 284.691406 249.699219 281.40625 249.398438 L 281.296875 249.398438 L 247.597656 159.214844 L 246.023438 159.214844 C 244.121094 159.921875 242.304688 160.628906 240.566406 161.386719 L 273.097656 248.394531 C 271.523438 248.175781 270 247.90625 268.453125 247.609375 L 264 241.117188 C 260.0625 235.386719 253.109375 232.507812 246.292969 233.757812 L 217.210938 239 C 212.539062 239.839844 207.734375 239.785156 203.0625 238.835938 L 182.585938 234.679688 C 177.425781 233.621094 172.511719 237.371094 172.132812 242.636719 L 171.371094 253.800781 C 171.046875 258.199219 172.703125 262.515625 175.878906 265.585938 L 196.246094 285.246094 C 203.0625 291.816406 212.785156 294.34375 221.9375 291.953125 L 255.878906 283.074219 C 259.980469 282.015625 264.273438 281.6875 268.480469 282.121094 L 285.453125 281.46875 L 295.148438 307.40625 L 182.179688 307.40625 L 126.972656 159.703125 L 199.667969 159.703125 L 199.371094 159.214844 L 198.988281 158.589844 L 196.03125 153.621094 C 186.769531 138.0625 186.390625 118.753906 195.078125 102.839844 L 206.863281 81.25 L 212.160156 11.894531 L 260.496094 3.722656 C 264.597656 3.015625 268.726562 2.472656 272.824219 2.09375 C 269.949219 7.929688 267.230469 16.292969 266.171875 22.949219 C 261.964844 49.152344 274.210938 72.886719 293.492188 76.011719 C 312.800781 79.078125 331.835938 60.367188 336.042969 34.164062 C 337.566406 24.714844 336.941406 15.589844 334.605469 7.605469 C 336.535156 8.148438 338.460938 8.71875 340.363281 9.316406 L 396.410156 27.101562 C 394.457031 26.75 392.445312 26.585938 390.410156 26.585938 C 371.128906 26.585938 355.488281 42.203125 355.488281 61.480469 Z M 355.488281 61.480469 " fill-opacity="1" fill-rule="nonzero"/><path fill="#ffffff" d="M 478.773438 304.632812 C 478.773438 318.972656 473.34375 331.953125 464.519531 341.566406 C 460.691406 345.75 456.207031 349.277344 451.238281 351.996094 C 390.816406 395.171875 284.855469 419.257812 169.933594 439.597656 L 165.398438 425.042969 L 158.773438 403.890625 L 153.503906 387.023438 L 112.5 388.058594 C 108.453125 388.164062 104.460938 388.519531 100.496094 389.117188 L 94.03125 387.488281 C 72.199219 381.945312 52.292969 370.515625 36.488281 354.4375 L 17.644531 335.265625 C 5.558594 323.535156 -0.496094 308.355469 2.816406 293.582031 C 8.601562 267.675781 40.96875 252.820312 75.078125 260.453125 C 90.664062 263.929688 103.890625 271.503906 113.148438 281.171875 L 251.265625 343.058594 C 257.457031 340.316406 263.59375 337.4375 269.730469 334.425781 C 249.144531 331.734375 229.429688 322.558594 213.925781 307.40625 L 302.96875 307.40625 L 293.300781 281.496094 L 304.433594 281.226562 L 305.765625 288.503906 L 387.992188 279.109375 L 388.019531 279.109375 L 395.40625 278.265625 L 395.296875 275.496094 C 395.976562 275.742188 396.683594 275.929688 397.390625 276.09375 L 397.335938 278.050781 L 407.601562 276.855469 L 409.472656 276.664062 L 409.800781 276.609375 C 410.503906 276.5 411.210938 276.394531 411.890625 276.230469 C 411.917969 276.230469 411.945312 276.203125 411.972656 276.203125 C 424.003906 273.515625 433.453125 264.007812 436.085938 251.980469 C 460.335938 256.242188 478.773438 278.210938 478.773438 304.632812 Z M 478.773438 304.632812 " fill-opacity="1" fill-rule="nonzero"/></g></g></g><path fill="#e29c6e" d="M 496.960938 268.433594 C 489.402344 268.433594 481.90625 274.257812 477.816406 282.460938 L 474.914062 250.125 C 470.90625 251.792969 466.523438 252.734375 461.90625 252.734375 C 443.390625 252.734375 428.378906 237.722656 428.378906 219.207031 C 428.378906 218.871094 428.378906 218.558594 428.402344 218.226562 C 422.660156 222.859375 415.355469 225.636719 407.398438 225.636719 C 399.195312 225.636719 391.699219 222.691406 385.875 217.808594 C 383.078125 222.484375 381.222656 227.765625 380.53125 233.382812 C 380.40625 234.445312 380.324219 235.488281 380.261719 236.574219 L 379.28125 259.207031 L 380.867188 295.949219 C 380.929688 297.304688 381.035156 298.660156 381.179688 299.996094 C 382.035156 307.722656 384.375 315.132812 388.007812 321.835938 C 391.828125 328.972656 397.109375 335.363281 403.601562 340.519531 C 401.449219 343.105469 399.507812 345.988281 397.816406 349.121094 C 394.644531 354.945312 392.347656 361.644531 391.160156 368.953125 C 390.949219 370.246094 390.78125 371.539062 390.679688 372.835938 C 388.195312 397.449219 400.15625 419.035156 418.507812 422 C 437.796875 425.089844 456.855469 406.363281 461.050781 380.164062 C 461.429688 377.699219 461.679688 375.234375 461.804688 372.835938 C 462.136719 365.402344 461.175781 358.285156 459.109375 352 L 459.109375 334.796875 C 466.269531 328.222656 471.804688 320.039062 475.207031 310.917969 C 475.914062 308.996094 476.519531 307.035156 477.042969 305.027344 C 479.464844 309.496094 483.660156 312.316406 488.902344 312.316406 C 493.304688 312.316406 497.710938 310.332031 501.386719 307.054688 C 505.957031 303.046875 509.484375 297.054688 510.695312 290.375 C 512.929688 278.265625 506.769531 268.433594 496.960938 268.433594 Z M 496.960938 268.433594 " fill-opacity="1" fill-rule="nonzero"/><g mask="url(#b24eb450b8)"><g transform="matrix(1, 0, 0, 1, 396, 333)"><g clip-path="url(#8d9d0fcdf1)"><g clip-path="url(#a04d5f8bc4)"><path fill="#000000" d="M 63.109375 1.800781 L 63.109375 9.835938 C 62.253906 10.742188 61.367188 11.628906 60.445312 12.484375 C 56.453125 16.210938 51.921875 19.429688 46.957031 22.03125 L 45.296875 22.902344 C 34.984375 28.285156 22.875 28.421875 12.59375 23.554688 C 10.527344 22.582031 8.550781 21.425781 6.671875 20.050781 C 4.976562 18.824219 3.367188 17.519531 1.824219 16.125 C 3.5 12.988281 5.449219 10.105469 7.59375 7.523438 C 8.265625 8.058594 8.953125 8.59375 9.65625 9.097656 C 10.613281 9.785156 11.585938 10.421875 12.59375 11.027344 C 23.445312 17.433594 36.945312 17.851562 48.285156 11.933594 L 49.945312 11.0625 C 52.410156 9.769531 54.757812 8.328125 56.988281 6.75 C 59.152344 5.242188 61.183594 3.578125 63.109375 1.800781 Z M 63.109375 1.800781 " fill-opacity="1" fill-rule="nonzero"/></g></g></g></g><path fill="#ffffff" d="M 372.246094 504.777344 C 347.859375 513.375 336.414062 526.410156 344.960938 546.3125 L 225.421875 546.3125 C 214.425781 527.558594 220.570312 512.832031 253.027344 504.285156 Z M 372.246094 504.777344 " fill-opacity="1" fill-rule="nonzero"/></svg>